<?xml version="1.0" encoding="iso-8859-1"?>
<!-- Generator: Adobe Illustrator 16.0.0, SVG Export Plug-In . SVG Version: 6.00 Build 0)  -->
<!DOCTYPE svg PUBLIC "-//W3C//DTD SVG 1.1//EN" "http://www.w3.org/Graphics/SVG/1.1/DTD/svg11.dtd">
<svg version="1.1" id="Capa_1" xmlns="http://www.w3.org/2000/svg" xmlns:xlink="http://www.w3.org/1999/xlink" x="0px" y="0px"
	 width="46.016px" height="46.016px" viewBox="0 0 46.016 46.016" style="enable-background:new 0 0 46.016 46.016;"
	 xml:space="preserve">
<g>
	<g>
		<path d="M3.111,2.462C0.968,3.21-0.07,5.816,0.791,8.283L12.796,42.7c0.86,2.468,3.295,3.86,5.437,3.114l3.033-1.059L6.143,1.406
			L3.111,2.462z"/>
		<path d="M14.008,12.404c0.688-0.24,1.251-0.742,1.568-1.398c0.317-0.655,0.36-1.41,0.12-2.098L13.23,1.84
			c-0.24-0.688-0.743-1.25-1.399-1.567c-0.655-0.317-1.409-0.359-2.097-0.12l-2.12,0.74l4.273,12.252L14.008,12.404z"/>
		<path d="M24.079,32.94c-0.239-0.688-0.743-1.252-1.398-1.567c-0.655-0.316-1.411-0.359-2.098-0.12l-2.121,0.739l4.274,12.253
			l2.122-0.739c1.431-0.5,2.187-2.064,1.688-3.497L24.079,32.94z"/>
		<path d="M25.118,18.257l0.584-0.5c0.938-0.84,1.721-1.708,1.721-2.797c0-1.179-0.812-2.037-2.281-2.037
			c-0.879,0-1.64,0.3-2.129,0.669l0.429,1.089c0.339-0.26,0.828-0.539,1.388-0.539c0.749,0,1.068,0.419,1.068,0.949
			c-0.021,0.758-0.707,1.488-2.125,2.756l-0.836,0.76v0.902h4.613v-1.247h-2.431L25.118,18.257L25.118,18.257z"/>
		<path d="M32.599,13.025h-1.855l-2.446,3.963v0.963h2.868v1.559h1.434v-1.559h0.812v-1.123h-0.812V13.025z M31.166,15.4v1.428
			h-1.434v-0.01l0.854-1.408c0.22-0.41,0.376-0.826,0.586-1.2h0.04C31.183,14.583,31.166,15.01,31.166,15.4z"/>
		<path d="M37.132,14.531c-0.278,0-0.565,0.064-0.786,0.184c-0.238,0.131-0.436,0.305-0.596,0.492h-0.033v-2.742H34.22v7.045h1.497
			v-2.88c0-0.11,0.018-0.241,0.059-0.341c0.109-0.27,0.366-0.529,0.766-0.529c0.569,0,0.797,0.439,0.797,1.079v2.671h1.496v-2.84
			C38.834,15.201,38.102,14.531,37.132,14.531z"/>
		<path d="M30.889,2.173c-8.072,0-14.639,6.566-14.639,14.639c0,8.071,6.567,14.639,14.639,14.639
			c8.071,0,14.639-6.567,14.639-14.639S38.96,2.173,30.889,2.173z M30.889,27.456c-5.87,0-10.646-4.775-10.646-10.645
			S25.02,6.165,30.889,6.165s10.646,4.777,10.646,10.646S36.758,27.456,30.889,27.456z"/>
	</g>
</g>
<g>
</g>
<g>
</g>
<g>
</g>
<g>
</g>
<g>
</g>
<g>
</g>
<g>
</g>
<g>
</g>
<g>
</g>
<g>
</g>
<g>
</g>
<g>
</g>
<g>
</g>
<g>
</g>
<g>
</g>
</svg>
