<?xml version="1.0" encoding="iso-8859-1"?>
<!-- Generator: Adobe Illustrator 19.0.0, SVG Export Plug-In . SVG Version: 6.00 Build 0)  -->
<svg version="1.1" id="Layer_1" xmlns="http://www.w3.org/2000/svg" xmlns:xlink="http://www.w3.org/1999/xlink" x="0px" y="0px"
	 viewBox="0 0 512 512" style="enable-background:new 0 0 512 512;" xml:space="preserve">
<path style="fill:#5D7EAC;" d="M222.609,22.261C222.609,9.966,232.575,0,244.87,0h200.348c12.295,0,22.261,9.966,22.261,22.261V512
	h-244.87V22.261z"/>
<path style="fill:#809DED;" d="M434.087,512H222.609V22.261C222.609,9.966,232.575,0,244.87,0h189.217V512z"/>
<path style="fill:#5D7EAC;" d="M172.522,367.304h72.348v33.391h-72.348c-24.588,0-44.522-19.934-44.522-44.522v-55.652h33.391
	v55.652C161.391,362.321,166.374,367.304,172.522,367.304z"/>
<path style="fill:#344966;" d="M244.87,367.304V384h-5.565h-61.217h-5.565c-15.343,0-27.826-12.483-27.826-27.826v-55.652h5.565
	h5.565h5.565v55.652c0,6.147,4.983,11.13,11.13,11.13h66.783H244.87z"/>
<path style="fill:#FFD34E;" d="M166.957,322.783h-44.522c-6.147,0-11.13-4.983-11.13-11.13v-33.391h66.783v33.391
	C178.087,317.799,173.104,322.783,166.957,322.783z"/>
<path style="fill:#FFB933;" d="M178.087,278.261v33.391c0,6.147-4.983,11.13-11.13,11.13h-22.261c6.147,0,11.13-4.983,11.13-11.13
	v-33.391H178.087z"/>
<path style="fill:#6D6D6D;" d="M467.478,400.696h-244.87V178.087h244.87V400.696z"/>
<path style="fill:#444444;" d="M467.478,400.696h-33.391V178.087h33.391V400.696z"/>
<path style="fill:#809DED;" d="M498.087,503.652c0,4.61-3.738,8.348-8.348,8.348H22.261c-4.61,0-8.348-3.738-8.348-8.348
	s3.738-8.348,8.348-8.348h467.478C494.349,495.304,498.087,499.042,498.087,503.652z"/>
<path style="fill:#FFD34E;" d="M355.463,49.962l38.071,63.45c1.045,1.742,1.597,3.734,1.597,5.766l0,0
	c0,6.19-5.018,11.206-11.206,11.206h-77.761c-6.19,0-11.206-5.018-11.206-11.206l0,0c0-2.031,0.552-4.024,1.597-5.766l38.071-63.45
	c2.026-3.376,5.673-5.441,9.609-5.441h1.621C349.791,44.522,353.438,46.588,355.463,49.962z"/>
<path style="fill:#FFB933;" d="M393.533,113.414l-38.071-63.45c-2.025-3.376-5.673-5.441-9.609-5.441h-1.621
	c-3.937,0-7.584,2.065-9.609,5.441l-38.071,63.45c-1.045,1.742-1.597,3.734-1.597,5.766c0,6.19,5.018,11.206,11.206,11.206h77.761
	c6.19,0,11.206-5.016,11.206-11.206C395.13,117.148,394.578,115.154,393.533,113.414z M315.857,113.69l29.186-48.642l29.186,48.642
	C374.23,113.69,315.857,113.69,315.857,113.69z M345.043,79.105c4.61,0,8.348,3.738,8.348,8.348v14.31
	c0,4.61-3.738,8.348-8.348,8.348s-8.348-3.738-8.348-8.348v-14.31C336.696,82.843,340.433,79.105,345.043,79.105z"/>
<path style="fill:#E53B00;" d="M422.957,333.913c0,12.295-9.966,22.261-22.261,22.261c-12.295,0-22.261-9.966-22.261-22.261
	s9.966-22.261,22.261-22.261C412.99,311.652,422.957,321.618,422.957,333.913z M400.696,267.13c12.295,0,22.261-9.966,22.261-22.261
	c0-12.295-9.966-22.261-22.261-22.261c-12.295,0-22.261,9.966-22.261,22.261C378.435,257.164,388.401,267.13,400.696,267.13z"/>
<path style="fill:#FF6600;" d="M411.826,333.913c0,10.369-7.1,19.056-16.696,21.531c-9.596-2.474-16.696-11.162-16.696-21.531
	s7.1-19.056,16.696-21.531C404.726,314.857,411.826,323.544,411.826,333.913z M395.13,266.4
	c9.596-2.474,16.696-11.162,16.696-21.531s-7.1-19.056-16.696-21.531c-9.596,2.474-16.696,11.162-16.696,21.531
	S385.535,263.926,395.13,266.4z"/>
<path style="fill:#AACE80;" d="M345.043,322.783v22.261c0,6.147-4.983,11.13-11.13,11.13h-55.652c-6.147,0-11.13-4.983-11.13-11.13
	v-22.261c0-6.147,4.983-11.13,11.13-11.13h55.652C340.06,311.652,345.043,316.635,345.043,322.783z M333.913,222.609h-33.391
	c-6.147,0-11.13,4.983-11.13,11.13V256c0,6.147,4.983,11.13,11.13,11.13h33.391c6.147,0,11.13-4.983,11.13-11.13v-22.261
	C345.043,227.592,340.06,222.609,333.913,222.609z"/>
<path style="fill:#344966;" d="M292.174,439.652c0-4.61,3.738-8.348,8.348-8.348h89.043c4.61,0,8.348,3.738,8.348,8.348
	S394.175,448,389.565,448h-89.043C295.911,448,292.174,444.262,292.174,439.652z M389.565,464.696h-89.043
	c-4.61,0-8.348,3.738-8.348,8.348s3.738,8.348,8.348,8.348h89.043c4.61,0,8.348-3.738,8.348-8.348S394.175,464.696,389.565,464.696z
	"/>
<path style="fill:#C1E296;" d="M311.652,222.609v44.522h-11.13c-6.147,0-11.13-4.983-11.13-11.13v-22.261
	c0-6.147,4.983-11.13,11.13-11.13H311.652z M289.391,356.174h22.261v-44.522h-22.261V356.174z"/>
<path style="fill:#344966;" d="M233.739,289.391h-22.261c-6.147,0-11.13-4.983-11.13-11.13v-55.652h44.522v55.652
	C244.87,284.408,239.886,289.391,233.739,289.391z"/>
<path style="fill:#5D7EAC;" d="M244.87,89.043v133.565h-22.261v66.783H55.652c-6.147,0-11.13-4.983-11.13-11.13v-55.652V89.043
	c0-6.147,4.983-11.13,11.13-11.13h178.087C239.886,77.913,244.87,82.896,244.87,89.043z"/>
<path style="fill:#809DED;" d="M222.609,222.609H44.522V89.043c0-6.147,4.983-11.13,11.13-11.13h166.957V222.609z"/>
<path style="fill:#FFE473;" d="M211.478,189.217H77.913v-77.913h133.565V189.217z"/>
<path style="fill:#344966;" d="M114.087,256c0,4.61-3.738,8.348-8.348,8.348h-11.13c-4.61,0-8.348-3.738-8.348-8.348
	s3.738-8.348,8.348-8.348h11.13C110.349,247.652,114.087,251.39,114.087,256z M150.261,247.652h-11.13
	c-4.61,0-8.348,3.738-8.348,8.348s3.738,8.348,8.348,8.348h11.13c4.61,0,8.348-3.738,8.348-8.348S154.871,247.652,150.261,247.652z
	 M194.783,247.652h-11.13c-4.61,0-8.348,3.738-8.348,8.348s3.738,8.348,8.348,8.348h11.13c4.61,0,8.348-3.738,8.348-8.348
	S199.393,247.652,194.783,247.652z"/>
<path style="fill:#FFB933;" d="M153.043,139.13v22.261c0,4.61-3.738,8.348-8.348,8.348c-4.61,0-8.348-3.738-8.348-8.348V139.13
	c0-4.61,3.738-8.348,8.348-8.348C149.306,130.783,153.043,134.52,153.043,139.13z M111.304,130.783c-4.61,0-8.348,3.738-8.348,8.348
	v22.261c0,4.61,3.738,8.348,8.348,8.348s8.348-3.738,8.348-8.348V139.13C119.652,134.52,115.915,130.783,111.304,130.783z
	 M178.087,130.783c-4.61,0-8.348,3.738-8.348,8.348v22.261c0,4.61,3.738,8.348,8.348,8.348c4.61,0,8.348-3.738,8.348-8.348V139.13
	C186.435,134.52,182.697,130.783,178.087,130.783z"/>
<g>
</g>
<g>
</g>
<g>
</g>
<g>
</g>
<g>
</g>
<g>
</g>
<g>
</g>
<g>
</g>
<g>
</g>
<g>
</g>
<g>
</g>
<g>
</g>
<g>
</g>
<g>
</g>
<g>
</g>
</svg>
