<?xml version="1.0" encoding="iso-8859-1"?>
<!-- Generator: Adobe Illustrator 19.0.0, SVG Export Plug-In . SVG Version: 6.00 Build 0)  -->
<svg version="1.1" id="Layer_1" xmlns="http://www.w3.org/2000/svg" xmlns:xlink="http://www.w3.org/1999/xlink" x="0px" y="0px"
	 viewBox="0 0 511.998 511.998" style="enable-background:new 0 0 511.998 511.998;" xml:space="preserve">
<polygon style="fill:#F37C4A;" points="190.354,369.391 170.461,373.369 166.482,393.261 198.311,425.089 222.181,401.218 "/>
<rect x="121.749" y="285.271" transform="matrix(-0.7071 0.7071 -0.7071 -0.7071 478.1534 485.0102)" style="fill:#F7A676;" width="33.758" height="112.526"/>
<polygon style="fill:#F37C4A;" points="261.965,297.779 242.074,301.757 238.095,321.649 269.922,353.477 293.794,329.606 "/>
<rect x="193.361" y="213.659" transform="matrix(-0.7071 0.7071 -0.7071 -0.7071 549.7662 312.123)" style="fill:#F7A676;" width="33.758" height="112.526"/>
<polygon style="fill:#F37C4A;" points="333.578,226.166 313.685,230.145 309.707,250.038 341.534,281.865 365.405,257.994 "/>
<rect x="264.974" y="142.046" transform="matrix(-0.7071 0.7071 -0.7071 -0.7071 621.3789 139.2358)" style="fill:#F7A676;" width="33.758" height="112.526"/>
<polygon style="fill:#F37C4A;" points="405.189,154.555 385.297,158.533 381.318,178.425 413.147,210.252 437.017,186.382 "/>
<rect x="336.583" y="70.446" transform="matrix(-0.7071 0.7071 -0.7071 -0.7071 692.9938 -33.6299)" style="fill:#F7A676;" width="33.758" height="112.526"/>
<g>
	
		<rect x="179.449" y="-64.44" transform="matrix(-0.7071 -0.7071 0.7071 -0.7071 196.3326 473.9687)" style="fill:#ED6350;" width="33.758" height="521.526"/>
	
		<rect x="54.906" y="298.796" transform="matrix(-0.7071 0.7071 -0.7071 -0.7071 762.097 315.6792)" style="fill:#ED6350;" width="521.526" height="33.758"/>
</g>
<g>
</g>
<g>
</g>
<g>
</g>
<g>
</g>
<g>
</g>
<g>
</g>
<g>
</g>
<g>
</g>
<g>
</g>
<g>
</g>
<g>
</g>
<g>
</g>
<g>
</g>
<g>
</g>
<g>
</g>
</svg>
