<?xml version="1.0" encoding="iso-8859-1"?>
<!-- Generator: Adobe Illustrator 19.0.0, SVG Export Plug-In . SVG Version: 6.00 Build 0)  -->
<svg version="1.1" id="Capa_1" xmlns="http://www.w3.org/2000/svg" xmlns:xlink="http://www.w3.org/1999/xlink" x="0px" y="0px"
	 viewBox="0 0 512 512" style="enable-background:new 0 0 512 512;" xml:space="preserve">
<path style="fill:#0072A2;" d="M437.019,74.981C388.667,26.628,324.38,0,256,0S123.333,26.628,74.981,74.981
	C26.628,123.333,0,187.62,0,256c0,68.379,26.628,132.666,74.981,181.019c30.815,30.815,68.998,53.35,110.42,65.166
	c9.455,2.698,19.317-2.782,22.017-12.242c2.699-9.46-2.783-19.317-12.244-22.016c-35.61-10.159-68.461-29.558-95.003-56.098
	C58.549,370.204,35.626,314.863,35.626,256c0-58.864,22.922-114.205,64.546-155.828S197.136,35.626,256,35.626
	s114.205,22.922,155.828,64.546S476.374,197.136,476.374,256c0,58.863-22.922,114.204-64.546,155.828
	c-37.397,37.396-85.867,59.697-138.015,63.841v-62.614v-6.746h-35.626v6.746v81.132c0,9.838,7.975,17.813,17.813,17.813
	c68.38,0,132.667-26.628,181.019-74.981C485.372,388.666,512,324.379,512,256C512,187.62,485.372,123.333,437.019,74.981z"/>
<g>
	<path style="fill:#006289;" d="M273.813,416.617v-3.563v-6.746h-25.941v10.308v62.614c8.764-0.696,17.42-1.918,25.941-3.625
		V416.617z"/>
	<path style="fill:#006289;" d="M437.019,74.981C388.667,26.628,324.38,0,256,0c-4.341,0-8.665,0.11-12.97,0.323
		c63.507,3.148,122.766,29.375,168.049,74.658c48.352,48.352,74.98,112.639,74.98,181.019c0,68.379-26.628,132.666-74.981,181.019
		c-43.468,43.469-99.817,69.366-160.438,74.157c1.692,0.533,3.491,0.824,5.36,0.824c68.38,0,132.667-26.628,181.019-74.981
		C485.372,388.666,512,324.379,512,256C512,187.62,485.372,123.333,437.019,74.981z"/>
</g>
<path style="fill:#FF8B00;" d="M153.874,230.447v71.701c0,41.376,28.111,76.186,66.275,86.375c5.516,1.473,9.38,6.425,9.38,12.134
	l0,0c0,6.847,5.551,12.398,12.398,12.398h28.145c6.847,0,12.398-5.551,12.398-12.398l0,0c0-5.709,3.865-10.662,9.381-12.134
	c38.165-10.189,66.276-44.999,66.276-86.375v-71.701L153.874,230.447L153.874,230.447z"/>
<path style="fill:#FF6900;" d="M358.126,230.447h-8.907h-17.034h-8.907v67.12c0,41.376-28.111,76.186-66.276,86.375
	c-5.516,1.473-9.381,6.425-9.381,12.134c0,2.837,0.209,9.798-0.031,16.978h8.907h4.667h8.907c6.847,0,12.398-5.551,12.398-12.398
	c0-1.427,0.242-2.807,0.69-4.097c1.009-2.903,3.066-5.351,5.777-6.86c0.904-0.503,1.88-0.901,2.914-1.177
	c4.771-1.274,9.384-2.932,13.805-4.94c1.105-0.502,2.199-1.026,3.279-1.571c11.684-5.893,21.89-14.282,29.938-24.455
	c0.329-0.415,0.651-0.835,0.972-1.256c0.84-1.101,1.652-2.225,2.441-3.366c1.089-1.575,2.144-3.176,3.132-4.822
	c0.944-1.571,1.825-3.183,2.673-4.815c6.401-12.319,10.035-26.308,10.035-41.15v-71.7H358.126z"/>
<path style="fill:#FFDE3E;" d="M332.554,98.946h-8.424c-6.521,0-11.808,5.287-11.808,11.808v102.759h32.04V110.754
	C344.362,104.232,339.076,98.946,332.554,98.946z"/>
<path style="fill:#FCD400;" d="M332.554,98.946h-4.212v114.566h16.02V110.753C344.362,104.232,339.076,98.946,332.554,98.946z"/>
<path style="fill:#FFDE3E;" d="M187.869,98.946h-8.424c-6.521,0-11.808,5.287-11.808,11.808v102.759h32.04V110.754
	C199.677,104.232,194.39,98.946,187.869,98.946z"/>
<path style="fill:#FCD400;" d="M187.869,98.946h-4.212v114.566h16.02V110.753C199.677,104.232,194.39,98.946,187.869,98.946z"/>
<path style="fill:#FF4D4A;" d="M361.881,202.308H150.119c-4.562,0-8.26,3.698-8.26,8.26v20.785c0,4.562,3.698,8.26,8.26,8.26
	h211.762c4.562,0,8.26-3.698,8.26-8.26v-20.785C370.141,206.007,366.443,202.308,361.881,202.308z"/>
<path style="fill:#E13F33;" d="M361.881,202.308H344.2v37.306h17.681c4.562,0,8.26-3.698,8.26-8.26v-20.785
	C370.141,206.006,366.443,202.308,361.881,202.308z"/>
<g>
</g>
<g>
</g>
<g>
</g>
<g>
</g>
<g>
</g>
<g>
</g>
<g>
</g>
<g>
</g>
<g>
</g>
<g>
</g>
<g>
</g>
<g>
</g>
<g>
</g>
<g>
</g>
<g>
</g>
</svg>
