<?xml version="1.0" encoding="iso-8859-1"?>
<!-- Generator: Adobe Illustrator 19.0.0, SVG Export Plug-In . SVG Version: 6.00 Build 0)  -->
<svg version="1.1" id="Layer_1" xmlns="http://www.w3.org/2000/svg" xmlns:xlink="http://www.w3.org/1999/xlink" x="0px" y="0px"
	 viewBox="0 0 512 512" style="enable-background:new 0 0 512 512;" xml:space="preserve">
<rect id="SVGCleanerId_0" x="238.334" y="177.721" style="fill:#0071CE;" width="35.32" height="303.503"/>
<g>
	<rect id="SVGCleanerId_0_1_" x="238.334" y="177.721" style="fill:#0071CE;" width="35.32" height="303.503"/>
</g>
<rect x="238.334" y="394.01" style="fill:#00B3E3;" width="35.32" height="87.226"/>
<rect x="238.334" y="177.721" style="opacity:0.2;enable-background:new    ;" width="35.32" height="37.147"/>
<path style="fill:#2B3E49;" d="M300.094,490.272v-10.349c0-5.493-4.452-9.945-9.947-9.945h-68.294c-5.493,0-9.947,4.452-9.947,9.945
	v10.349H300.094z"/>
<path style="fill:#A4A9AD;" d="M317.817,61.817C317.817,27.676,290.14,0,255.999,0s-61.817,27.676-61.817,61.817H317.817z"/>
<path style="opacity:0.2;enable-background:new    ;" d="M317.817,61.817c0-11.967-3.41-23.134-9.298-32.599H203.482
	c-5.887,9.464-9.298,20.632-9.298,32.599H317.817z"/>
<polygon style="fill:#F2D383;" points="317.817,54.089 194.183,54.089 213.746,177.724 298.254,177.724 "/>
<g>
	<path style="fill:#333E48;" d="M308.036,124.161H203.964c-4.559,0-8.255-3.696-8.255-8.255s3.696-8.255,8.255-8.255h104.072
		c4.56,0,8.255,3.696,8.255,8.255S312.595,124.161,308.036,124.161z"/>
	<path style="fill:#333E48;" d="M317.817,71.699H194.183c-9.725,0-17.61-7.884-17.61-17.61c0-9.725,7.885-17.61,17.61-17.61h123.633
		c9.726,0,17.61,7.885,17.61,17.61C335.428,63.814,327.543,71.699,317.817,71.699z"/>
	<path style="fill:#333E48;" d="M298.254,195.334h-84.509c-9.726,0-17.61-7.884-17.61-17.61c0-9.725,7.884-17.61,17.61-17.61h84.509
		c9.726,0,17.61,7.885,17.61,17.61S307.981,195.334,298.254,195.334z"/>
</g>
<path style="fill:#A4A9AD;" d="M314.908,512c2.823,0,5.114-2.29,5.114-5.114v-3.621c0-7.975-6.464-14.442-14.44-14.442h-99.161
	c-7.975,0-14.442,6.466-14.442,14.442v3.621c0,2.823,2.29,5.114,5.115,5.114H314.908z"/>
<g>
	<path style="fill:#FFB819;" d="M125.899,163.305c-3.403,0-6.59-2.121-7.786-5.513c-1.514-4.3,0.742-9.014,5.042-10.53
		l39.738-14.006c4.301-1.516,9.014,0.742,10.53,5.042c1.514,4.3-0.742,9.014-5.042,10.53l-39.738,14.006
		C127.736,163.153,126.81,163.305,125.899,163.305z"/>
	<path style="fill:#FFB819;" d="M165.647,104.088c-0.351,0-0.706-0.023-1.063-0.068l-51.51-6.624
		c-4.521-0.581-7.716-4.718-7.134-9.241c0.581-4.521,4.713-7.713,9.241-7.134l51.51,6.624c4.521,0.581,7.716,4.718,7.134,9.241
		C173.289,101.049,169.737,104.088,165.647,104.088z"/>
	<path style="fill:#FFB819;" d="M386.103,163.305c-0.91,0-1.836-0.152-2.744-0.471l-39.739-14.006
		c-4.299-1.516-6.557-6.23-5.041-10.53c1.514-4.299,6.226-6.558,10.529-5.042l39.739,14.006c4.299,1.516,6.557,6.23,5.041,10.53
		C392.692,161.184,389.505,163.305,386.103,163.305z"/>
	<path style="fill:#FFB819;" d="M346.352,104.088c-4.09,0-7.641-3.039-8.177-7.203c-0.581-4.521,2.613-8.659,7.134-9.241
		l51.511-6.624c4.515-0.572,8.658,2.613,9.24,7.134c0.581,4.521-2.613,8.659-7.134,9.241l-51.511,6.624
		C347.058,104.065,346.704,104.088,346.352,104.088z"/>
</g>
<g>
</g>
<g>
</g>
<g>
</g>
<g>
</g>
<g>
</g>
<g>
</g>
<g>
</g>
<g>
</g>
<g>
</g>
<g>
</g>
<g>
</g>
<g>
</g>
<g>
</g>
<g>
</g>
<g>
</g>
</svg>
