<?xml version="1.0" encoding="iso-8859-1"?>
<!-- Generator: Adobe Illustrator 19.0.0, SVG Export Plug-In . SVG Version: 6.00 Build 0)  -->
<svg version="1.1" id="Layer_1" xmlns="http://www.w3.org/2000/svg" xmlns:xlink="http://www.w3.org/1999/xlink" x="0px" y="0px"
	 viewBox="0 0 512 512" style="enable-background:new 0 0 512 512;" xml:space="preserve">
<path style="fill:#DE3205;" d="M294.371,0H18.327C8.838,0,1.145,7.693,1.145,17.181v402.04c0,9.489,7.693,17.181,17.181,17.181
	h276.045c9.489,0,17.181-7.693,17.181-17.181V17.181C311.553,7.693,303.86,0,294.371,0z"/>
<path style="fill:#9D2217;" d="M294.371,0H156.349v436.403h138.022c9.489,0,17.181-7.693,17.181-17.181V17.181
	C311.553,7.693,303.86,0,294.371,0z"/>
<path style="fill:#C6C5CA;" d="M411.204,181.032V91.633c0-9.489-7.693-17.181-17.181-17.181c-9.489,0-17.181,7.693-17.181,17.181
	v89.398L411.204,181.032L411.204,181.032z"/>
<path style="fill:#2D2E30;" d="M376.841,224.445v270.374c0,9.489,7.693,17.181,17.181,17.181c9.489,0,17.181-7.693,17.181-17.181
	V224.445H376.841z"/>
<path style="fill:#1D1D1F;" d="M258.864,114.828c0,6.168-5,11.168-11.168,11.168H65.002c-6.168,0-11.168-5-11.168-11.168V58.13
	c0-6.168,5-11.168,11.168-11.168h182.694c6.168,0,11.168,5,11.168,11.168V114.828z"/>
<circle style="fill:#C27526;" cx="156.349" cy="259.436" r="89.342"/>
<g>
	<circle style="fill:#1D1D1F;" cx="64.143" cy="389.441" r="17.181"/>
	<circle style="fill:#1D1D1F;" cx="120.268" cy="389.441" r="17.181"/>
</g>
<path style="fill:#8A8A91;" d="M499.4,181.032V91.633c0-9.489-7.693-17.181-17.181-17.181c-9.489,0-17.181,7.693-17.181,17.181
	v89.398L499.4,181.032L499.4,181.032z"/>
<path style="fill:#1D1D1F;" d="M465.038,224.445v253.193H262.872v-58.416c0-9.489-7.693-17.181-17.181-17.181
	c-9.489,0-17.181,7.693-17.181,17.181v75.597c0,9.489,7.693,17.181,17.181,17.181h236.528c9.489,0,17.181-7.693,17.181-17.181
	V224.445H465.038z"/>
<path style="fill:#9D2217;" d="M422.658,268.027c0,5.694-4.615,10.309-10.309,10.309h-36.653c-5.694,0-10.309-4.615-10.309-10.309
	v-124.85c0-15.815,12.821-28.635,28.635-28.635s28.635,12.821,28.635,28.635V268.027z"/>
<path style="fill:#2D2E30;" d="M510.855,268.961c0,5.694-4.615,10.309-10.309,10.309h-36.653c-5.694,0-10.309-4.615-10.309-10.309
	v-124.85c0-15.815,12.821-28.635,28.635-28.635s28.635,12.821,28.635,28.635V268.961z"/>
<path style="fill:#3E3E42;" d="M186.392,101.972h-7.348c-2.77,0-5.013-2.245-5.013-5.013V74.097c0-2.77,2.245-5.013,5.013-5.013
	h7.348c2.77,0,5.013,2.245,5.013,5.013v22.861C191.407,99.728,189.162,101.972,186.392,101.972z"/>
<path style="fill:#EDA637;" d="M67.007,259.436c0,49.342,40,89.342,89.342,89.342V170.094
	C107.007,170.094,67.007,210.094,67.007,259.436z"/>
<path style="fill:#3D3E3F;" d="M156.349,46.962H65.002c-6.168,0-11.168,5-11.168,11.168v56.698c0,6.168,5,11.168,11.168,11.168
	h91.347V46.962z"/>
<g>
	<path style="fill:#1D1D1F;" d="M93.906,101.972h-7.348c-2.77,0-5.013-2.245-5.013-5.013V74.097c0-2.77,2.245-5.013,5.013-5.013
		h7.348c2.77,0,5.013,2.245,5.013,5.013v22.861C98.919,99.728,96.675,101.972,93.906,101.972z"/>
	<path style="fill:#1D1D1F;" d="M133.262,101.972h-7.348c-2.77,0-5.013-2.245-5.013-5.013V74.097c0-2.77,2.245-5.013,5.013-5.013
		h7.348c2.77,0,5.013,2.245,5.013,5.013v22.861C138.277,99.728,136.032,101.972,133.262,101.972z"/>
</g>
<path style="fill:#F7DC4D;" d="M112.613,338.681c-9.485,0-18.401-3.694-25.107-10.4c-13.845-13.845-13.845-36.37,0-50.215
	l87.473-87.473c6.706-6.706,15.623-10.4,25.107-10.4s18.401,3.694,25.107,10.4c13.845,13.845,13.845,36.37,0,50.215L137.72,328.28
	C131.014,334.987,122.098,338.681,112.613,338.681z"/>
<path style="fill:#FFEB8A;" d="M156.349,209.221l-68.844,68.844c-13.845,13.845-13.845,36.37,0,50.215
	c6.706,6.706,15.623,10.4,25.107,10.4s18.401-3.694,25.107-10.4l18.629-18.629V209.221z"/>
<path style="fill:#DE3205;" d="M365.387,143.177v124.85c0,5.693,4.615,10.309,10.309,10.309h18.327V114.541
	C378.208,114.541,365.387,127.362,365.387,143.177z"/>
<path style="fill:#57565C;" d="M453.584,144.111v124.85c0,5.694,4.615,10.309,10.309,10.309h18.327V115.476
	C466.405,115.476,453.584,128.297,453.584,144.111z"/>
<g>
</g>
<g>
</g>
<g>
</g>
<g>
</g>
<g>
</g>
<g>
</g>
<g>
</g>
<g>
</g>
<g>
</g>
<g>
</g>
<g>
</g>
<g>
</g>
<g>
</g>
<g>
</g>
<g>
</g>
</svg>
