<?xml version="1.0" encoding="iso-8859-1"?>
<!-- Generator: Adobe Illustrator 19.0.0, SVG Export Plug-In . SVG Version: 6.00 Build 0)  -->
<svg version="1.1" id="Layer_1" xmlns="http://www.w3.org/2000/svg" xmlns:xlink="http://www.w3.org/1999/xlink" x="0px" y="0px"
	 viewBox="0 0 512 512" style="enable-background:new 0 0 512 512;" xml:space="preserve">
<path style="fill:#EE9A04;" d="M97.763,131.697c-0.783,0-1.579-0.113-2.367-0.346l-49.138-14.654
	c-4.38-1.306-6.871-5.914-5.565-10.294c1.306-4.38,5.914-6.87,10.294-5.565l49.138,14.654c4.38,1.306,6.871,5.914,5.565,10.294
	C104.618,129.375,101.326,131.697,97.763,131.697z"/>
<path style="fill:#FF423E;" d="M240.293,217.779c-18.093-36.458-57.005-84.874-139.631-108.48
	c-7.322-2.093-14.956,2.148-17.048,9.47c-2.092,7.324,2.148,14.956,9.472,17.048c58.052,16.587,99.076,47.906,121.932,93.09
	c2.401,4.745,4.458,9.4,6.235,13.91h22.06v-18.657C242.361,222.052,241.357,219.924,240.293,217.779z"/>
<path style="fill:#C12323;" d="M220.146,240.096c0.378,0.911,0.753,1.82,1.108,2.722h20.956v-21.043
	c-0.62-1.326-1.253-2.655-1.917-3.995c-4.978-10.033-11.538-20.97-20.147-32.046V240.096z"/>
<path style="fill:#EE9A04;" d="M256,73.637c-4.569,0-8.274-3.703-8.274-8.274V8.274C247.726,3.703,251.431,0,256,0
	c4.571,0,8.274,3.703,8.274,8.274v57.089C264.274,69.933,260.571,73.637,256,73.637z"/>
<path style="fill:#66C49A;" d="M269.79,58.024c0-7.614-6.174-13.79-13.79-13.79c-7.617,0-13.79,6.176-13.79,13.79v184.794h20.287
	c1.98-5.947,4.381-12.206,7.293-18.657V58.024z"/>
<path style="fill:#50AA7F;" d="M269.79,186.13c-8.457,10.942-14.92,21.738-19.839,31.65c-3.026,6.099-5.578,12.064-7.741,17.802
	v7.236h20.287c1.98-5.947,4.381-12.206,7.293-18.657V186.13z"/>
<path style="fill:#EE9A04;" d="M413.351,131.961c-3.563,0-6.854-2.321-7.925-5.911c-1.306-4.38,1.185-8.988,5.563-10.294
	l50.025-14.918c4.378-1.304,8.988,1.186,10.293,5.565c1.306,4.38-1.185,8.989-5.565,10.294l-50.024,14.918
	C414.931,131.85,414.135,131.961,413.351,131.961z"/>
<path style="fill:#48ADE1;" d="M428.385,118.769c-2.092-7.322-9.723-11.56-17.048-9.47
	c-82.625,23.606-121.536,72.023-139.628,108.48c-4.322,8.708-7.69,17.149-10.315,25.037h29.334c1.639-4.141,3.52-8.414,5.684-12.777
	c10.989-22.14,26.3-40.985,45.805-56.439l21.054-14.412c16.338-9.642,34.904-17.445,55.645-23.373
	C426.237,133.725,430.478,126.093,428.385,118.769z"/>
<path style="fill:#414143;" d="M308.769,375.364v-120.41c0-7.311-5.928-13.238-13.238-13.238h-79.06
	c-7.313,0-13.238,5.928-13.238,13.238v243.808c0,7.311,5.925,13.238,13.238,13.238h79.06c7.311,0,13.238-5.927,13.238-13.238V401.84
	"/>
<path style="fill:#343438;" d="M225.296,498.762V254.953c0-7.311,5.926-13.238,13.238-13.238H216.47
	c-7.313,0-13.238,5.928-13.238,13.238v243.808c0,7.311,5.925,13.238,13.238,13.238h22.064
	C231.222,512,225.296,506.071,225.296,498.762z"/>
<rect x="203.233" y="280.402" style="fill:#828186;" width="105.533" height="27.212"/>
<rect x="203.233" y="280.402" style="fill:#6F6E75;" width="22.064" height="27.212"/>
<g>
</g>
<g>
</g>
<g>
</g>
<g>
</g>
<g>
</g>
<g>
</g>
<g>
</g>
<g>
</g>
<g>
</g>
<g>
</g>
<g>
</g>
<g>
</g>
<g>
</g>
<g>
</g>
<g>
</g>
</svg>
